<?xml version="1.0" encoding="UTF-8" standalone="no"?>
<!-- Created with Inkscape (http://www.inkscape.org/) -->

<svg
   width="30.93606mm"
   height="31.098764mm"
   viewBox="0 0 30.93606 31.098764"
   version="1.1"
   id="svg1"
   xml:space="preserve"
   inkscape:version="1.3.2 (091e20e, 2023-11-25, custom)"
   sodipodi:docname="carasole icons.svg"
   xmlns:inkscape="http://www.inkscape.org/namespaces/inkscape"
   xmlns:sodipodi="http://sodipodi.sourceforge.net/DTD/sodipodi-0.dtd"
   xmlns="http://www.w3.org/2000/svg"
   xmlns:svg="http://www.w3.org/2000/svg"><sodipodi:namedview
     id="namedview1"
     pagecolor="#ffffff"
     bordercolor="#000000"
     borderopacity="0.25"
     inkscape:showpageshadow="2"
     inkscape:pageopacity="0.0"
     inkscape:pagecheckerboard="0"
     inkscape:deskcolor="#d1d1d1"
     inkscape:document-units="mm"
     inkscape:zoom="1"
     inkscape:cx="518.5"
     inkscape:cy="744.5"
     inkscape:window-width="2560"
     inkscape:window-height="1017"
     inkscape:window-x="1912"
     inkscape:window-y="564"
     inkscape:window-maximized="1"
     inkscape:current-layer="layer1"
     showgrid="false"><inkscape:grid
       id="grid7"
       units="mm"
       originx="-21.488995"
       originy="-136.71571"
       spacingx="0.99999998"
       spacingy="1"
       empcolor="#0099e5"
       empopacity="0.30196078"
       color="#0099e5"
       opacity="0.14901961"
       empspacing="5"
       dotted="false"
       gridanglex="30"
       gridanglez="30"
       visible="false" /></sodipodi:namedview><defs
     id="defs1" /><g
     inkscape:label="Layer 1"
     inkscape:groupmode="layer"
     id="layer1"
     transform="translate(-21.488995,-136.71571)"><path
       style="fill:none;stroke:#b2d9ba;stroke-width:1.733;stroke-linecap:round;stroke-linejoin:miter;stroke-dasharray:none;stroke-opacity:1"
       d="m 22.477256,155.86558 -0.01463,7.20444 c 0.133585,1.63575 1.584544,4.00256 3.732784,3.87294 l 21.833772,-0.0245 c 1.81935,0.15232 3.58324,-1.00123 3.52604,-3.10934 l 0.003,-7.94197 -9.584675,0.10223 c -0.04814,1.829 -0.250148,4.17621 -2.554371,4.03801 l -4.516223,0.0428 c -2.525981,0.1029 -2.416073,-1.20922 -2.415636,-4.18272 z"
       id="path7-1-5-8-9"
       sodipodi:nodetypes="ccccccccccc" /><path
       style="fill:none;stroke:#b2d9ba;stroke-width:1.58836;stroke-linecap:round;stroke-linejoin:miter;stroke-dasharray:none;stroke-opacity:1"
       d="m 22.297969,152.43224 -0.0147,-6.02204 c 0.13425,-1.36729 1.59244,-3.34565 3.751385,-3.23731 l 5.107327,0.005 12.419173,-0.0504 -12.413541,0.0239 c -0.105375,-3.59131 -0.169024,-5.56397 1.813217,-5.6335 l 8.340514,-0.008 c 2.605328,0.0513 2.134588,1.52159 2.259897,5.60924 l 4.415981,0.074 c 1.82841,-0.12732 3.60109,0.83691 3.54361,2.59904 l 0.003,6.63852 z"
       id="path7-1-5-8-9-6"
       sodipodi:nodetypes="ccccccccccccc" /></g></svg>
