<?xml version="1.0" encoding="UTF-8" standalone="no"?>
<!-- Created with Inkscape (http://www.inkscape.org/) -->

<svg
   width="36.665123mm"
   height="24.046015mm"
   viewBox="0 0 36.665123 24.046015"
   version="1.1"
   id="svg1"
   xml:space="preserve"
   inkscape:version="1.3.2 (091e20e, 2023-11-25, custom)"
   sodipodi:docname="carasole icons.svg"
   xmlns:inkscape="http://www.inkscape.org/namespaces/inkscape"
   xmlns:sodipodi="http://sodipodi.sourceforge.net/DTD/sodipodi-0.dtd"
   xmlns="http://www.w3.org/2000/svg"
   xmlns:svg="http://www.w3.org/2000/svg"><sodipodi:namedview
     id="namedview1"
     pagecolor="#ffffff"
     bordercolor="#000000"
     borderopacity="0.25"
     inkscape:showpageshadow="2"
     inkscape:pageopacity="0.0"
     inkscape:pagecheckerboard="0"
     inkscape:deskcolor="#d1d1d1"
     inkscape:document-units="mm"
     inkscape:zoom="1"
     inkscape:cx="518.5"
     inkscape:cy="744.5"
     inkscape:window-width="2560"
     inkscape:window-height="1017"
     inkscape:window-x="1912"
     inkscape:window-y="564"
     inkscape:window-maximized="1"
     inkscape:current-layer="layer1"
     showgrid="false"><inkscape:grid
       id="grid7"
       units="mm"
       originx="-138.52106"
       originy="-135.74682"
       spacingx="0.99999998"
       spacingy="1"
       empcolor="#0099e5"
       empopacity="0.30196078"
       color="#0099e5"
       opacity="0.14901961"
       empspacing="5"
       dotted="false"
       gridanglex="30"
       gridanglez="30"
       visible="false" /></sodipodi:namedview><defs
     id="defs1" /><g
     inkscape:label="Layer 1"
     inkscape:groupmode="layer"
     id="layer1"
     transform="translate(-138.52106,-135.74682)"><rect
       style="fill:#000000;fill-opacity:0;stroke:none;stroke-width:1.733;stroke-linecap:round;stroke-linejoin:round;stroke-dasharray:none;stroke-opacity:1"
       id="rect6"
       width="145.66806"
       height="78.409416"
       x="144.25208"
       y="128.4994"
       rx="0.22124553"
       ry="1.1283522" /><path
       style="fill:none;stroke:#b2d9ba;stroke-width:2.31641;stroke-linecap:round;stroke-linejoin:miter;stroke-dasharray:none;stroke-opacity:1"
       d="m 139.68301,141.83995 0.0159,13.38879 c 0.15761,2.47671 1.83667,3.57987 4.37156,3.38361 l 26.62352,-0.0371 c 2.00615,-0.0682 3.03002,-0.57683 3.33386,-3.7157 l -0.0291,-14.44378 c 0.093,-2.28446 -1.52148,-3.53083 -2.84406,-3.47005 l -27.72761,-0.0374 c -1.91937,-0.0833 -3.8455,1.29726 -3.74407,4.93162 z"
       id="path7-1-5-8-9-1"
       sodipodi:nodetypes="ccccccccc" /><path
       style="fill:none;fill-opacity:1;stroke:#b2d9ba;stroke-width:0.4;stroke-linecap:square;stroke-linejoin:miter;stroke-dasharray:none;stroke-opacity:1"
       d="m 142.83977,151.75026 3.83646,-9.22735 c 0.49217,-1.22628 1.9289,-1.04652 2.3151,0.0331 l 3.77031,9.26041 c 0.55496,1.9794 -2.19071,1.89159 -2.24895,1.35599 l -0.69454,-1.65364 -3.77031,-0.1323 -0.76068,1.55443 c -0.80996,1.43146 -3.06523,-0.002 -2.44739,-1.19064 z"
       id="path10"
       sodipodi:nodetypes="ccccccccc" /><path
       style="fill:#b2d9ba;fill-opacity:1;stroke:#b2d9ba;stroke-width:0.1;stroke-linecap:square;stroke-linejoin:miter;stroke-dasharray:none;stroke-opacity:1"
       d="m 144.2619,137.5289 c -3.66591,-0.37974 -3.93898,1.92835 -4.29948,4.16719 l 0.66146,13.46068 c 0.34106,2.06428 1.75034,2.51003 3.53881,2.38125 l 11.67473,0.0992 2.16431,-2.00505 c -1.23983,0.0961 -1.01704,-0.98243 -1.00605,-2.07788 l -4.0356,-1.78752 -0.56781,1.51012 -1.92919,0.24274 -0.77722,-1.96782 -3.52226,0.0166 -1.4056,2.13319 c -0.95115,-0.1421 -1.46649,-0.42277 -2.16628,-1.24023 l 4.23334,-10.46757 c 1.16857,0.0661 -0.46953,-0.96557 2.28203,0.31419 l 3.81992,9.57461 4.071,1.67107 -0.007,-11.954 c 0.0236,-0.96345 1.0311,-2.02576 2.04554,-2.00622 l 10.02957,-0.0721 c 1.44634,-0.016 2.02829,0.62036 2.0129,2.06345 l -0.0104,12.00825 c 0.052,1.61597 -0.44634,2.09662 -2.03553,2.01001 l -13.039,0.008 -0.13229,1.88516 15.88327,0.2067 1.75286,-2.38125 -0.29765,-15.04818 c -0.0492,-2.29237 -1.58778,-2.27233 -2.74506,-2.84427 z"
       id="path11"
       sodipodi:nodetypes="ccccccccccccccccccccccccccccccc" /><path
       style="fill:none;fill-opacity:1;stroke:#b2d9ba;stroke-width:2;stroke-linecap:round;stroke-linejoin:miter;stroke-dasharray:none;stroke-opacity:1"
       d="m 162.66698,148.54218 c 1.56626,1.46853 1.92148,2.31225 4.34909,3.81992"
       id="path12"
       sodipodi:nodetypes="cc" /><path
       style="fill:none;fill-opacity:1;stroke:#b2d9ba;stroke-width:2.1;stroke-linecap:round;stroke-linejoin:miter;stroke-dasharray:none;stroke-opacity:1"
       d="m 161.9063,152.16367 c 2.08442,-1.4026 4.66393,-3.3002 5.93659,-7.37526"
       id="path13"
       sodipodi:nodetypes="cc" /><path
       style="fill:#b2d9ba;fill-opacity:1;stroke:#b2d9ba;stroke-width:2.1;stroke-linecap:round;stroke-linejoin:miter;stroke-dasharray:none;stroke-opacity:1"
       d="m 160.10383,144.70573 c 3.01619,0.12231 5.84629,0.0585 8.59896,-0.0827"
       id="path14"
       sodipodi:nodetypes="cc" /><path
       style="fill:#b2d9ba;fill-opacity:1;stroke:#b2d9ba;stroke-width:1.993;stroke-linecap:round;stroke-linejoin:miter;stroke-dasharray:none;stroke-opacity:1"
       d="m 164.1847,142.96575 0.0239,1.74362"
       id="path15"
       sodipodi:nodetypes="cc" /><path
       style="fill:#b2d9ba;fill-opacity:1;stroke:#b2d9ba;stroke-width:0.593;stroke-linecap:round;stroke-linejoin:round;stroke-dasharray:none;stroke-opacity:1"
       d="m 146.84717,148.89831 0.95882,-2.32107 0.9296,2.3386 z"
       id="path16"
       sodipodi:nodetypes="cccc" /></g></svg>
