<?xml version="1.0" encoding="UTF-8" standalone="no"?>
<!-- Created with Inkscape (http://www.inkscape.org/) -->

<svg
   width="33.326271mm"
   height="33.781078mm"
   viewBox="0 0 33.326271 33.781078"
   version="1.1"
   id="svg1"
   xml:space="preserve"
   inkscape:version="1.3.2 (091e20e, 2023-11-25, custom)"
   sodipodi:docname="carasole icons.svg"
   xmlns:inkscape="http://www.inkscape.org/namespaces/inkscape"
   xmlns:sodipodi="http://sodipodi.sourceforge.net/DTD/sodipodi-0.dtd"
   xmlns="http://www.w3.org/2000/svg"
   xmlns:svg="http://www.w3.org/2000/svg"><sodipodi:namedview
     id="namedview1"
     pagecolor="#ffffff"
     bordercolor="#000000"
     borderopacity="0.25"
     inkscape:showpageshadow="2"
     inkscape:pageopacity="0.0"
     inkscape:pagecheckerboard="0"
     inkscape:deskcolor="#d1d1d1"
     inkscape:document-units="mm"
     inkscape:zoom="1"
     inkscape:cx="518.5"
     inkscape:cy="744.5"
     inkscape:window-width="2560"
     inkscape:window-height="1017"
     inkscape:window-x="1912"
     inkscape:window-y="564"
     inkscape:window-maximized="1"
     inkscape:current-layer="layer1"
     showgrid="false"><inkscape:grid
       id="grid7"
       units="mm"
       originx="-22.754167"
       originy="-190.76458"
       spacingx="0.99999998"
       spacingy="1"
       empcolor="#0099e5"
       empopacity="0.30196078"
       color="#0099e5"
       opacity="0.14901961"
       empspacing="5"
       dotted="false"
       gridanglex="30"
       gridanglez="30"
       visible="false" /></sodipodi:namedview><defs
     id="defs1" /><g
     inkscape:label="Layer 1"
     inkscape:groupmode="layer"
     id="layer1"
     transform="translate(-22.754166,-190.76458)"><path
       style="fill:none;stroke:#b2d9ba;stroke-width:1.733;stroke-linecap:round;stroke-linejoin:miter;stroke-dasharray:none;stroke-opacity:1"
       d="m 51.732327,209.47823 c 0.27333,-3.04378 -0.62532,-14.74433 -0.89458,-16.83584 -0.11593,-1.21797 -1.37301,-1.39207 -1.86884,-0.21658 -3.25995,5.54863 -7.72903,8.72274 -13.93093,8.71469 l -7.97058,-0.0103 c -2.34354,0.001 -3.51184,1.8866 -3.44377,3.41521 l 0.13272,3.15756 c 0.10669,1.87012 1.46759,3.00087 3.7527,2.9623 1.38051,-0.0233 3.19983,-0.004 5.57353,-0.0674 1.71122,0.30141 10.60779,-1.19901 15.75122,9.03419 0.71029,0.92136 2.04897,2.40241 2.32931,-1.01719 l 0.56668,-9.17984 c 2.63577,-0.3935 3.49893,-1.3197 3.48401,-2.65996 -0.0213,-1.90984 -1.91573,-3.10188 -3.45003,-2.65555 z"
       id="path7-1-5-8-9-5-9"
       sodipodi:nodetypes="cccscccsccccscc" /><path
       style="fill:#b2d9ba;fill-opacity:1;stroke:#b2d9ba;stroke-width:1.493;stroke-linecap:round;stroke-linejoin:round;stroke-dasharray:none;stroke-opacity:1"
       d="m 34.449927,210.64946 0.0234,-9.37782"
       id="path17"
       sodipodi:nodetypes="cc" /><path
       style="fill:none;fill-opacity:1;stroke:#b2d9ba;stroke-width:1.493;stroke-linecap:round;stroke-linejoin:round;stroke-dasharray:none;stroke-opacity:1"
       d="m 25.654797,210.43774 c 1.05256,0.74192 2.16986,3.05399 3.57187,12.27005 0.18328,0.53881 1.02664,1.07487 1.71153,1.07487 l 3.24941,0.0165 c 2.75828,-1.45388 -0.60829,-3.85973 -0.64492,-5.04362 -0.42761,-3.35151 -0.6473,-5.92734 -0.38034,-8.45013 z"
       id="path18"
       sodipodi:nodetypes="ccccccc" /></g></svg>
