<?xml version="1.0" encoding="UTF-8" standalone="no"?>
<!-- Created with Inkscape (http://www.inkscape.org/) -->

<svg
   width="108.13105mm"
   height="87.052238mm"
   viewBox="0 0 108.13105 87.052238"
   version="1.1"
   id="svg1"
   xml:space="preserve"
   inkscape:version="1.3.2 (091e20e, 2023-11-25, custom)"
   sodipodi:docname="Full logo.svg"
   xmlns:inkscape="http://www.inkscape.org/namespaces/inkscape"
   xmlns:sodipodi="http://sodipodi.sourceforge.net/DTD/sodipodi-0.dtd"
   xmlns:xlink="http://www.w3.org/1999/xlink"
   xmlns="http://www.w3.org/2000/svg"
   xmlns:svg="http://www.w3.org/2000/svg"><sodipodi:namedview
     id="namedview1"
     pagecolor="#ffffff"
     bordercolor="#000000"
     borderopacity="0.25"
     inkscape:showpageshadow="2"
     inkscape:pageopacity="0.0"
     inkscape:pagecheckerboard="0"
     inkscape:deskcolor="#d1d1d1"
     inkscape:document-units="mm"
     showgrid="false"
     inkscape:zoom="1.4142136"
     inkscape:cx="480.47906"
     inkscape:cy="290.97444"
     inkscape:window-width="2560"
     inkscape:window-height="1017"
     inkscape:window-x="1912"
     inkscape:window-y="564"
     inkscape:window-maximized="1"
     inkscape:current-layer="layer1"><inkscape:grid
       id="grid1"
       units="mm"
       originx="-50.956882"
       originy="-4.3721933"
       spacingx="0.99999998"
       spacingy="1"
       empcolor="#0099e5"
       empopacity="0.30196078"
       color="#0099e5"
       opacity="0.14901961"
       empspacing="5"
       dotted="false"
       gridanglex="30"
       gridanglez="30"
       visible="false" /></sodipodi:namedview><defs
     id="defs1"><linearGradient
       inkscape:collect="always"
       xlink:href="#linearGradient22"
       id="linearGradient23"
       x1="92.874886"
       y1="83.829147"
       x2="86.838593"
       y2="63.876034"
       gradientUnits="userSpaceOnUse"
       gradientTransform="translate(10.080755,-55.832197)" /><linearGradient
       id="linearGradient22"
       inkscape:collect="always"><stop
         style="stop-color:#6f58b0;stop-opacity:1;"
         offset="0"
         id="stop22" /><stop
         style="stop-color:#6f58b0;stop-opacity:0;"
         offset="1"
         id="stop23" /></linearGradient><linearGradient
       inkscape:collect="always"
       xlink:href="#linearGradient22"
       id="linearGradient21"
       x1="92.979385"
       y1="91.349022"
       x2="86.838593"
       y2="63.876034"
       gradientUnits="userSpaceOnUse"
       gradientTransform="translate(10.080755,-55.832197)" /><linearGradient
       inkscape:collect="always"
       xlink:href="#linearGradient24"
       id="linearGradient25"
       x1="102.27351"
       y1="80.273506"
       x2="107.29398"
       y2="74.567299"
       gradientUnits="userSpaceOnUse"
       gradientTransform="translate(10.080755,-55.832197)" /><linearGradient
       id="linearGradient24"
       inkscape:collect="always"><stop
         style="stop-color:#def3e4;stop-opacity:1;"
         offset="0"
         id="stop24" /><stop
         style="stop-color:#def3e4;stop-opacity:0;"
         offset="1"
         id="stop25" /></linearGradient><linearGradient
       inkscape:collect="always"
       xlink:href="#linearGradient24"
       id="linearGradient27"
       x1="107.29398"
       y1="74.567299"
       x2="107.52785"
       y2="64.511292"
       gradientUnits="userSpaceOnUse"
       gradientTransform="translate(10.080755,-55.832197)" /><linearGradient
       inkscape:collect="always"
       xlink:href="#linearGradient13"
       id="linearGradient14"
       x1="93.837967"
       y1="82.56221"
       x2="100.1839"
       y2="66.158043"
       gradientUnits="userSpaceOnUse"
       gradientTransform="translate(10.080755,-55.832197)" /><linearGradient
       id="linearGradient13"
       inkscape:collect="always"><stop
         style="stop-color:#2a2c45;stop-opacity:1;"
         offset="0"
         id="stop13" /><stop
         style="stop-color:#2a2c45;stop-opacity:0;"
         offset="1"
         id="stop14" /></linearGradient><linearGradient
       inkscape:collect="always"
       xlink:href="#linearGradient13"
       id="linearGradient12"
       x1="93.011147"
       y1="80.677048"
       x2="98.9422"
       y2="66.35154"
       gradientUnits="userSpaceOnUse"
       gradientTransform="translate(10.080755,-55.832197)" /><linearGradient
       inkscape:collect="always"
       xlink:href="#linearGradient13"
       id="linearGradient19"
       x1="90.378586"
       y1="72.699265"
       x2="89.831841"
       y2="68.647629"
       gradientUnits="userSpaceOnUse"
       gradientTransform="translate(10.080755,-55.832197)" /><radialGradient
       inkscape:collect="always"
       xlink:href="#linearGradient22"
       id="radialGradient37"
       cx="93.887459"
       cy="-93.416611"
       fx="93.887459"
       fy="-93.416611"
       r="1.9850397"
       gradientTransform="matrix(1,0,0,1.0308822,-55.832197,-7.1958438)"
       gradientUnits="userSpaceOnUse" /><radialGradient
       inkscape:collect="always"
       xlink:href="#linearGradient37"
       id="radialGradient39"
       cx="93.887459"
       cy="-93.416611"
       fx="93.887459"
       fy="-93.416611"
       r="2.0596123"
       gradientTransform="matrix(1,0,0,1.0297641,-55.832197,-7.300298)"
       gradientUnits="userSpaceOnUse" /><linearGradient
       id="linearGradient37"
       inkscape:collect="always"><stop
         style="stop-color:#6f58b0;stop-opacity:0.4405797;"
         offset="0"
         id="stop38" /><stop
         style="stop-color:#6f58b0;stop-opacity:0.01115242;"
         offset="1"
         id="stop39" /></linearGradient><linearGradient
       inkscape:collect="always"
       xlink:href="#linearGradient22"
       id="linearGradient28"
       gradientUnits="userSpaceOnUse"
       x1="92.874886"
       y1="83.829147"
       x2="86.838593"
       y2="63.876034"
       gradientTransform="rotate(90,126.1894,71.073397)" /><linearGradient
       inkscape:collect="always"
       xlink:href="#linearGradient22"
       id="linearGradient29"
       gradientUnits="userSpaceOnUse"
       x1="92.979385"
       y1="91.349022"
       x2="86.838593"
       y2="63.876034"
       gradientTransform="rotate(90,126.1894,71.073397)" /><linearGradient
       inkscape:collect="always"
       xlink:href="#linearGradient24"
       id="linearGradient30"
       gradientUnits="userSpaceOnUse"
       x1="102.27351"
       y1="80.273506"
       x2="107.29398"
       y2="74.567299"
       gradientTransform="rotate(90,126.1894,71.073397)" /><linearGradient
       inkscape:collect="always"
       xlink:href="#linearGradient24"
       id="linearGradient31"
       gradientUnits="userSpaceOnUse"
       x1="107.29398"
       y1="74.567299"
       x2="107.52785"
       y2="64.511292"
       gradientTransform="rotate(90,126.1894,71.073397)" /><linearGradient
       inkscape:collect="always"
       xlink:href="#linearGradient13"
       id="linearGradient32"
       gradientUnits="userSpaceOnUse"
       x1="93.837967"
       y1="82.56221"
       x2="100.1839"
       y2="66.158043"
       gradientTransform="rotate(90,126.1894,71.073397)" /><linearGradient
       inkscape:collect="always"
       xlink:href="#linearGradient13"
       id="linearGradient33"
       gradientUnits="userSpaceOnUse"
       x1="93.011147"
       y1="80.677048"
       x2="98.9422"
       y2="66.35154"
       gradientTransform="rotate(90,126.1894,71.073397)" /><linearGradient
       inkscape:collect="always"
       xlink:href="#linearGradient13"
       id="linearGradient34"
       gradientUnits="userSpaceOnUse"
       x1="90.378586"
       y1="72.699265"
       x2="89.831841"
       y2="68.647629"
       gradientTransform="rotate(90,126.1894,71.073397)" /><linearGradient
       inkscape:collect="always"
       xlink:href="#linearGradient22"
       id="linearGradient28-1"
       gradientUnits="userSpaceOnUse"
       x1="92.874886"
       y1="83.829147"
       x2="86.838593"
       y2="63.876034"
       gradientTransform="rotate(180,98.247844,65.935776)" /><linearGradient
       inkscape:collect="always"
       xlink:href="#linearGradient22"
       id="linearGradient29-2"
       gradientUnits="userSpaceOnUse"
       x1="92.979385"
       y1="91.349022"
       x2="86.838593"
       y2="63.876034"
       gradientTransform="rotate(180,98.247844,65.935776)" /><linearGradient
       inkscape:collect="always"
       xlink:href="#linearGradient24"
       id="linearGradient30-8"
       gradientUnits="userSpaceOnUse"
       x1="102.27351"
       y1="80.273506"
       x2="107.29398"
       y2="74.567299"
       gradientTransform="rotate(180,98.247844,65.935776)" /><linearGradient
       inkscape:collect="always"
       xlink:href="#linearGradient24"
       id="linearGradient31-9"
       gradientUnits="userSpaceOnUse"
       x1="107.29398"
       y1="74.567299"
       x2="107.52785"
       y2="64.511292"
       gradientTransform="rotate(180,98.247844,65.935776)" /><linearGradient
       inkscape:collect="always"
       xlink:href="#linearGradient13"
       id="linearGradient32-8"
       gradientUnits="userSpaceOnUse"
       x1="93.837967"
       y1="82.56221"
       x2="100.1839"
       y2="66.158043"
       gradientTransform="rotate(180,98.247844,65.935776)" /><linearGradient
       inkscape:collect="always"
       xlink:href="#linearGradient13"
       id="linearGradient33-7"
       gradientUnits="userSpaceOnUse"
       x1="93.011147"
       y1="80.677048"
       x2="98.9422"
       y2="66.35154"
       gradientTransform="rotate(180,98.247844,65.935776)" /><linearGradient
       inkscape:collect="always"
       xlink:href="#linearGradient13"
       id="linearGradient34-8"
       gradientUnits="userSpaceOnUse"
       x1="90.378586"
       y1="72.699265"
       x2="89.831841"
       y2="68.647629"
       gradientTransform="rotate(180,98.247844,65.935776)" /><linearGradient
       inkscape:collect="always"
       xlink:href="#linearGradient22"
       id="linearGradient28-1-4"
       gradientUnits="userSpaceOnUse"
       x1="92.874886"
       y1="83.829147"
       x2="86.838593"
       y2="63.876034"
       gradientTransform="rotate(-90,70.461763,60.731772)" /><linearGradient
       inkscape:collect="always"
       xlink:href="#linearGradient22"
       id="linearGradient29-2-9"
       gradientUnits="userSpaceOnUse"
       x1="92.979385"
       y1="91.349022"
       x2="86.838593"
       y2="63.876034"
       gradientTransform="rotate(-90,70.461763,60.731772)" /><linearGradient
       inkscape:collect="always"
       xlink:href="#linearGradient24"
       id="linearGradient30-8-2"
       gradientUnits="userSpaceOnUse"
       x1="102.27351"
       y1="80.273506"
       x2="107.29398"
       y2="74.567299"
       gradientTransform="rotate(-90,70.461763,60.731772)" /><linearGradient
       inkscape:collect="always"
       xlink:href="#linearGradient24"
       id="linearGradient31-9-6"
       gradientUnits="userSpaceOnUse"
       x1="107.29398"
       y1="74.567299"
       x2="107.52785"
       y2="64.511292"
       gradientTransform="rotate(-90,70.461763,60.731772)" /><linearGradient
       inkscape:collect="always"
       xlink:href="#linearGradient13"
       id="linearGradient32-8-3"
       gradientUnits="userSpaceOnUse"
       x1="93.837967"
       y1="82.56221"
       x2="100.1839"
       y2="66.158043"
       gradientTransform="rotate(-90,70.461763,60.731772)" /><linearGradient
       inkscape:collect="always"
       xlink:href="#linearGradient13"
       id="linearGradient33-7-6"
       gradientUnits="userSpaceOnUse"
       x1="93.011147"
       y1="80.677048"
       x2="98.9422"
       y2="66.35154"
       gradientTransform="rotate(-90,70.461763,60.731772)" /><linearGradient
       inkscape:collect="always"
       xlink:href="#linearGradient13"
       id="linearGradient34-8-5"
       gradientUnits="userSpaceOnUse"
       x1="90.378586"
       y1="72.699265"
       x2="89.831841"
       y2="68.647629"
       gradientTransform="rotate(-90,70.461763,60.731772)" /></defs><g
     inkscape:label="Layer 1"
     inkscape:groupmode="layer"
     id="layer1"
     transform="translate(-50.956884,-4.3721932)"><ellipse
       style="fill:#6f58b0;fill-opacity:1;stroke:#6f58b0;stroke-width:0.207146;stroke-linecap:square;stroke-dasharray:none;stroke-opacity:1"
       id="path6"
       cx="99.915504"
       cy="14.306794"
       rx="2.7745523"
       ry="2.8241615"
       inkscape:export-filename="..\website\Images\Dsetlogo.webp"
       inkscape:export-xdpi="96"
       inkscape:export-ydpi="96" /><path
       style="fill:url(#linearGradient23);fill-opacity:1;stroke:url(#linearGradient21);stroke-width:0.2;stroke-linecap:square;stroke-dasharray:none;stroke-opacity:1"
       d="m 101.57972,35.627497 c 0.25115,-9.347398 13.6673,-13.51245 8.68049,-30.2727523 -0.11417,-0.383716 -0.31458,-0.83062 -0.72048,-0.787922 -1.98075,0.462325 0.74675,14.0143413 -9.45886,14.7505213 -1.352417,2.528133 -2.449178,5.311935 -2.381248,9.260416 -0.80951,-2.65714 -1.14062,-5.68228 -0.33504,-9.581803 -1.4611,-0.583358 -2.19387,-1.204198 -2.93914,-2.192155 -3.60638,3.065187 -0.42182,17.526743 7.154278,18.823695 z"
       id="path7"
       sodipodi:nodetypes="cscccccc" /><path
       style="fill:url(#linearGradient25);fill-opacity:1;stroke:url(#linearGradient27);stroke-width:0.2;stroke-linecap:square;stroke-dasharray:none;stroke-opacity:1"
       d="m 103.66108,34.551737 c 3.96388,-8.323604 8.6338,-6.499343 9.68685,-15.096678 0.57585,-4.701454 0.19904,-12.5972223 -2.519,-14.7907373 1.69776,5.094783 2.23337,11.2338283 0.39734,16.1398173 -2.58759,6.914192 -7.47924,7.896018 -7.56519,13.747598 z"
       id="path8"
       sodipodi:nodetypes="cscsc" /><path
       style="fill:url(#linearGradient14);fill-opacity:1;stroke:url(#linearGradient12);stroke-width:0.2;stroke-linecap:square;stroke-dasharray:none;stroke-opacity:1"
       d="m 109.58948,4.5654177 c 1.24084,6.3966753 0.0562,11.4405813 -3.22726,15.6962123 -4.28751,5.556988 -8.289842,11.615493 -4.75808,15.27258 0.32344,-6.18046 5.1289,-8.988838 8.32033,-16.041262 0.79058,-1.747026 1.26234,-3.835071 1.38706,-5.917803 0.27868,-4.6535843 -0.83235,-9.1619663 -1.72246,-9.0097273 z"
       id="path11"
       sodipodi:nodetypes="cscsscc" /><path
       style="fill:url(#linearGradient19);fill-opacity:1;stroke:none;stroke-width:0.2;stroke-linecap:square;stroke-dasharray:none;stroke-opacity:1"
       d="m 97.049637,14.525544 c 0.07183,1.470612 1.56213,2.909282 3.093243,2.691984 0.27735,-0.03936 0.52123,-0.06404 0.87462,-0.210187 0.94561,-0.391049 1.57837,-1.351005 1.71809,-2.180815 0.13739,-0.815943 -0.075,-1.779558 -0.509,-2.290989 -1.57018,0.33099 -1.02362,6.721155 -5.176953,1.990007 z"
       id="path14"
       sodipodi:nodetypes="cssscc" /><ellipse
       style="fill:#6f58b0;fill-opacity:1;stroke:#6f58b0;stroke-width:0.207146;stroke-linecap:square;stroke-dasharray:none;stroke-opacity:1"
       id="path6-6"
       cx="34.718735"
       cy="-127.12382"
       rx="2.7745523"
       ry="2.8241615"
       transform="rotate(90)" /><ellipse
       style="fill:url(#radialGradient37);fill-opacity:1;stroke:url(#radialGradient39);stroke-width:0.149145;stroke-linecap:square;stroke-dasharray:none;stroke-opacity:0.44058"
       id="path6-6-4"
       cx="38.055252"
       cy="-103.49737"
       rx="1.9850397"
       ry="2.0463421"
       transform="rotate(90)" /><path
       style="fill:url(#linearGradient28);fill-opacity:1;stroke:url(#linearGradient29);stroke-width:0.2;stroke-linecap:square;stroke-dasharray:none;stroke-opacity:1"
       d="m 105.80311,36.382966 c 9.3474,0.25115 13.51245,13.66729 30.27275,8.68049 0.38371,-0.11417 0.83062,-0.31458 0.78792,-0.72048 -0.46232,-1.98075 -14.01434,0.74675 -14.75052,-9.458863 -2.52813,-1.35242 -5.31193,-2.44918 -9.26042,-2.38125 2.65715,-0.80951 5.68229,-1.14062 9.58181,-0.33504 0.58336,-1.4611 1.2042,-2.19387 2.19216,-2.93914 -3.06519,-3.60638 -17.52675,-0.42182 -18.8237,7.154283 z"
       id="path7-03"
       sodipodi:nodetypes="cscccccc" /><path
       style="fill:url(#linearGradient30);fill-opacity:1;stroke:url(#linearGradient31);stroke-width:0.2;stroke-linecap:square;stroke-dasharray:none;stroke-opacity:1"
       d="m 106.87887,38.464326 c 8.32361,3.96388 6.49935,8.6338 15.09668,9.68684 4.70145,0.57585 12.59722,0.19904 14.79073,-2.51899 -5.09478,1.69776 -11.23382,2.23337 -16.13981,0.39734 -6.91419,-2.58759 -7.89603,-7.47924 -13.7476,-7.56519 z"
       id="path8-2"
       sodipodi:nodetypes="cscsc" /><path
       style="fill:url(#linearGradient32);fill-opacity:1;stroke:url(#linearGradient33);stroke-width:0.2;stroke-linecap:square;stroke-dasharray:none;stroke-opacity:1"
       d="m 136.86519,44.392716 c -6.39668,1.24085 -11.44058,0.0562 -15.69621,-3.22726 -5.55699,-4.28751 -11.6155,-8.289837 -15.27259,-4.75808 6.18046,0.32345 8.98885,5.1289 16.04127,8.32034 1.74703,0.79058 3.83507,1.26234 5.9178,1.38706 4.65358,0.27868 9.16196,-0.83235 9.00973,-1.72247 z"
       id="path11-4"
       sodipodi:nodetypes="cscsscc" /><path
       style="fill:url(#linearGradient34);fill-opacity:1;stroke:none;stroke-width:0.2;stroke-linecap:square;stroke-dasharray:none;stroke-opacity:1"
       d="m 126.90506,31.852878 c -1.47061,0.07183 -2.90928,1.56213 -2.69198,3.093242 0.0394,0.277358 0.064,0.521231 0.21019,0.874627 0.39105,0.945609 1.351,1.578359 2.18081,1.718089 0.81594,0.13739 1.77956,-0.075 2.29099,-0.509 -0.33099,-1.570179 -6.72115,-1.023619 -1.99001,-5.176958 z"
       id="path14-6"
       sodipodi:nodetypes="cssscc" /><ellipse
       style="fill:#6f58b0;fill-opacity:1;stroke:#6f58b0;stroke-width:0.207146;stroke-linecap:square;stroke-dasharray:none;stroke-opacity:1"
       id="path6-6-9"
       cx="-106.66096"
       cy="-61.732574"
       rx="2.7745523"
       ry="2.8241615"
       transform="scale(-1)" /><path
       style="fill:url(#linearGradient28-1);fill-opacity:1;stroke:url(#linearGradient29-2);stroke-width:0.2;stroke-linecap:square;stroke-dasharray:none;stroke-opacity:1"
       d="m 104.99672,40.411876 c -0.25115,9.34739 -13.667285,13.51244 -8.680485,30.27275 0.11417,0.38371 0.31458,0.83062 0.72048,0.78792 1.980748,-0.46232 -0.74675,-14.01434 9.458855,-14.75052 1.35242,-2.52814 2.44918,-5.31194 2.38125,-9.26042 0.80952,2.65714 1.14063,5.68228 0.33505,9.5818 1.46109,0.58336 2.19386,1.2042 2.93913,2.19216 3.60639,-3.06519 0.42182,-17.52674 -7.15428,-18.82369 z"
       id="path7-03-0"
       sodipodi:nodetypes="cscccccc" /><path
       style="fill:url(#linearGradient30-8);fill-opacity:1;stroke:url(#linearGradient31-9);stroke-width:0.2;stroke-linecap:square;stroke-dasharray:none;stroke-opacity:1"
       d="m 102.91536,41.487636 c -3.963877,8.3236 -8.633795,6.49934 -9.686835,15.09667 -0.57585,4.70145 -0.19904,12.59723 2.51899,14.79074 -1.69776,-5.09478 -2.23337,-11.23383 -0.39734,-16.13982 2.587592,-6.91419 7.479235,-7.89601 7.565185,-13.74759 z"
       id="path8-2-3"
       sodipodi:nodetypes="cscsc" /><path
       style="fill:url(#linearGradient32-8);fill-opacity:1;stroke:url(#linearGradient33-7);stroke-width:0.2;stroke-linecap:square;stroke-dasharray:none;stroke-opacity:1"
       d="m 96.986975,71.473956 c -1.24085,-6.39668 -0.0562,-11.44059 3.227255,-15.69622 4.28751,-5.55699 8.28984,-11.61549 4.75808,-15.27258 -0.32344,6.18046 -5.128897,8.98884 -8.320335,16.04126 -0.79058,1.74703 -1.26234,3.83507 -1.38706,5.91781 -0.27868,4.65358 0.83235,9.16196 1.72247,9.00973 z"
       id="path11-4-9"
       sodipodi:nodetypes="cscsscc" /><path
       style="fill:url(#linearGradient34-8);fill-opacity:1;stroke:none;stroke-width:0.2;stroke-linecap:square;stroke-dasharray:none;stroke-opacity:1"
       d="m 109.52681,61.513826 c -0.0718,-1.47062 -1.56213,-2.90929 -3.09324,-2.69199 -0.27736,0.0394 -0.52123,0.064 -0.87463,0.21019 -0.94561,0.39105 -1.57836,1.351 -1.71809,2.18081 -0.13739,0.81595 0.075,1.77957 0.509,2.291 1.57018,-0.33099 1.02362,-6.72116 5.17696,-1.99001 z"
       id="path14-6-0"
       sodipodi:nodetypes="cssscc" /><ellipse
       style="fill:#6f58b0;fill-opacity:1;stroke:#6f58b0;stroke-width:0.207146;stroke-linecap:square;stroke-dasharray:none;stroke-opacity:1"
       id="path6-6-9-5"
       cx="-41.358795"
       cy="79.86898"
       rx="2.7745523"
       ry="2.8241615"
       transform="rotate(-90)" /><path
       style="fill:url(#linearGradient28-1-4);fill-opacity:1;stroke:url(#linearGradient29-2-9);stroke-width:0.2;stroke-linecap:square;stroke-dasharray:none;stroke-opacity:1"
       d="m 101.18967,39.694566 c -9.347388,-0.25115 -13.512444,-13.667289 -30.272748,-8.680489 -0.38371,0.11417 -0.83062,0.31458 -0.78792,0.72048 0.46232,1.980753 14.014341,-0.74675 14.750521,9.458859 2.528133,1.35243 5.311939,2.44919 9.260419,2.38126 -2.65714,0.80951 -5.682283,1.14062 -9.581806,0.33504 -0.583358,1.46109 -1.204198,2.19386 -2.192155,2.93913 3.065187,3.60638 17.526742,0.42182 18.823689,-7.15428 z"
       id="path7-03-0-7"
       sodipodi:nodetypes="cscccccc" /><path
       style="fill:url(#linearGradient30-8-2);fill-opacity:1;stroke:url(#linearGradient31-9-6);stroke-width:0.2;stroke-linecap:square;stroke-dasharray:none;stroke-opacity:1"
       d="m 100.11391,37.613206 c -8.323598,-3.963879 -6.499338,-8.633799 -15.096672,-9.686839 -4.701456,-0.57585 -12.597226,-0.19904 -14.790736,2.51899 5.09478,-1.69776 11.233827,-2.23337 16.139816,-0.39734 6.914194,2.58759 7.896014,7.479239 13.747592,7.565189 z"
       id="path8-2-3-8"
       sodipodi:nodetypes="cscsc" /><path
       style="fill:url(#linearGradient32-8-3);fill-opacity:1;stroke:url(#linearGradient33-7-6);stroke-width:0.2;stroke-linecap:square;stroke-dasharray:none;stroke-opacity:1"
       d="m 70.127592,31.684817 c 6.39668,-1.24085 11.440586,-0.0562 15.696217,3.227257 5.556993,4.287512 11.615493,8.289842 15.272581,4.758082 -6.180458,-0.32345 -8.988838,-5.128902 -16.041263,-8.320339 -1.747026,-0.79058 -3.835075,-1.26234 -5.917805,-1.38706 -4.65358,-0.27868 -9.16196,0.83235 -9.00973,1.72247 z"
       id="path11-4-9-9"
       sodipodi:nodetypes="cscsscc" /><path
       style="fill:url(#linearGradient34-8-5);fill-opacity:1;stroke:none;stroke-width:0.2;stroke-linecap:square;stroke-dasharray:none;stroke-opacity:1"
       d="m 80.087722,44.224656 c 1.470613,-0.0718 2.909283,-1.56213 2.691985,-3.09324 -0.03936,-0.27736 -0.06404,-0.52123 -0.210187,-0.87463 -0.391049,-0.94561 -1.351008,-1.57836 -2.180818,-1.71809 -0.81594,-0.13739 -1.77956,0.075 -2.29099,0.509 0.33099,1.57018 6.721159,1.02362 1.99001,5.17696 z"
       id="path14-6-0-4"
       sodipodi:nodetypes="cssscc" /><path
       style="fill:none;fill-opacity:1;stroke:#1f2235;stroke-width:2.044;stroke-linecap:square;stroke-dasharray:none;stroke-opacity:1"
       id="path99"
       sodipodi:type="arc"
       sodipodi:cx="57.993267"
       sodipodi:cy="84.157379"
       sodipodi:rx="6.014348"
       sodipodi:ry="6.1429725"
       sodipodi:start="0.72759902"
       sodipodi:end="5.4412257"
       sodipodi:arc-type="arc"
       d="m 62.484622,88.242938 a 6.014348,6.1429725 0 0 1 -6.469876,1.715505 6.014348,6.1429725 0 0 1 -4.025997,-5.449998 6.014348,6.1429725 0 0 1 3.390813,-5.883636 6.014348,6.1429725 0 0 1 6.619275,0.950222"
       sodipodi:open="true"
       inkscape:export-filename="Name dark.png"
       inkscape:export-xdpi="96"
       inkscape:export-ydpi="96" /><ellipse
       style="fill:none;fill-opacity:1;stroke:#1f2235;stroke-width:1.57959;stroke-linecap:square;stroke-dasharray:none;stroke-opacity:1"
       id="path99-5"
       cx="70.701439"
       cy="85.968887"
       rx="4.8078804"
       ry="4.5892401" /><ellipse
       style="fill:none;fill-opacity:1;stroke:#1f2235;stroke-width:1.36429;stroke-linecap:square;stroke-dasharray:none;stroke-opacity:1"
       id="path99-5-2"
       cx="70.715668"
       cy="85.987915"
       rx="3.9729512"
       ry="4.1429186" /><ellipse
       style="fill:none;fill-opacity:1;stroke:#1f2235;stroke-width:1.57959;stroke-linecap:square;stroke-dasharray:none;stroke-opacity:1"
       id="path99-5-3"
       cx="101.3908"
       cy="85.946564"
       rx="4.8078804"
       ry="4.5892401" /><ellipse
       style="fill:none;fill-opacity:1;stroke:#1f2235;stroke-width:1.36429;stroke-linecap:square;stroke-dasharray:none;stroke-opacity:1"
       id="path99-5-2-5"
       cx="101.40503"
       cy="85.965591"
       rx="3.9729512"
       ry="4.1429186" /><path
       style="fill:none;fill-opacity:1;stroke:#1f2235;stroke-width:2.1634;stroke-linecap:square;stroke-dasharray:none;stroke-opacity:1"
       d="m 79.502477,90.032745 -0.06285,-8.35912"
       id="path100" /><path
       style="fill:none;fill-opacity:1;stroke:#1f2235;stroke-width:2.1634;stroke-linecap:square;stroke-dasharray:none;stroke-opacity:1"
       d="m 134.28676,90.129145 -0.0628,-8.35912"
       id="path100-2" /><path
       style="fill:none;fill-opacity:1;stroke:#1f2235;stroke-width:2.183;stroke-linecap:square;stroke-dasharray:none;stroke-opacity:1"
       d="m 122.77692,90.005095 -0.0431,-12.40856"
       id="path100-0" /><path
       style="fill:none;fill-opacity:1;stroke:#1f2235;stroke-width:1.883;stroke-linecap:square;stroke-dasharray:none;stroke-opacity:1"
       d="m 123.64423,87.255375 5.18368,-5.13549"
       id="path100-0-1"
       sodipodi:nodetypes="cc" /><path
       style="fill:none;fill-opacity:1;stroke:#1f2235;stroke-width:1.983;stroke-linecap:square;stroke-dasharray:none;stroke-opacity:1"
       d="m 126.34122,85.485175 3.23094,4.4528"
       id="path100-0-1-1"
       sodipodi:nodetypes="cc" /><path
       style="fill:none;fill-opacity:1;stroke:#1f2235;stroke-width:2.183;stroke-linecap:square;stroke-dasharray:none;stroke-opacity:1"
       d="m 109.56537,88.961625 c 2.67025,1.29447 8.16528,2.57764 8.76603,-1.40208 0.33412,-2.21344 -1.57042,-2.90783 -4.87829,-3.53582 -3.27021,-0.64141 -4.10032,-2.31268 -3.46442,-3.93271 0.84439,-2.15119 4.17438,-2.97474 7.51091,-1.14251"
       id="path100-0-2"
       sodipodi:nodetypes="cscsc" /><path
       style="fill:none;fill-opacity:1;stroke:#1f2235;stroke-width:2.36853;stroke-linecap:square;stroke-dasharray:none;stroke-opacity:1"
       d="m 134.22476,77.825565 -0.0667,4.8e-4"
       id="path100-20" /><path
       style="fill:none;fill-opacity:1;stroke:#1f2235;stroke-width:2.16896;stroke-linecap:square;stroke-dasharray:none;stroke-opacity:1"
       d="m 141.95942,90.230645 c -0.31241,0.0791 -1.5483,0.32219 -2.17225,-0.34082 -0.31801,-0.33793 -0.52601,-0.59736 -0.4458,-2.5092 l -0.0128,-9.64983"
       id="path100-9"
       sodipodi:nodetypes="cscc" /><path
       style="fill:none;fill-opacity:1;stroke:#1f2235;stroke-width:2.16896;stroke-linecap:square;stroke-dasharray:none;stroke-opacity:1"
       d="m 148.1652,90.217635 c -0.31241,0.0791 -1.5483,0.32219 -2.17225,-0.34082 -0.31801,-0.33793 -0.52601,-0.59736 -0.4458,-2.5092 l -0.0128,-9.64983"
       id="path100-9-6"
       sodipodi:nodetypes="cscc" /><path
       style="fill:none;fill-opacity:1;stroke:#1f2235;stroke-width:1.936;stroke-linecap:square;stroke-dasharray:none;stroke-opacity:1"
       d="m 151.27182,89.441105 c 2.0777,0.93381 6.35336,1.85949 6.8208,-1.01147 0.25999,-1.59677 -1.22193,-2.09771 -3.79577,-2.55073 -2.54454,-0.46271 -3.19045,-1.66836 -2.69565,-2.83705 0.65701,-1.55187 3.24807,-2.14598 5.84421,-0.82421"
       id="path100-0-2-4"
       sodipodi:nodetypes="cscsc" /><path
       style="fill:none;fill-opacity:1;stroke:#1f2235;stroke-width:1.936;stroke-linecap:square;stroke-dasharray:none;stroke-opacity:1"
       d="m 86.687975,89.456275 c 2.077705,0.93381 6.353366,1.85949 6.820808,-1.01147 0.259983,-1.59677 -1.221936,-2.09771 -3.795776,-2.55073 -2.544537,-0.46271 -3.190446,-1.66836 -2.695653,-2.83705 0.657017,-1.55187 3.248071,-2.14598 5.844212,-0.82421"
       id="path100-0-2-4-0"
       sodipodi:nodetypes="cscsc" /><path
       style="fill:#1f2235;fill-opacity:1;stroke:#1f2235;stroke-width:0.1;stroke-linecap:square;stroke-dasharray:none;stroke-opacity:1"
       d="m 80.290194,83.494495 c 1.117267,-2.20496 2.786116,-2.96944 4.208529,-2.836 l -0.0248,1.85208 c -1.378909,0.28453 -3.343901,0.35968 -4.241602,3.14193 z"
       id="path101"
       sodipodi:nodetypes="ccccc" /><path
       style="fill:#1f2235;fill-opacity:1;stroke:#1f2235;stroke-width:0.0923179;stroke-linecap:square;stroke-dasharray:none;stroke-opacity:1"
       d="m 128.93655,80.828795 2.29399,0.0112 -1.11557,1.26542 z"
       id="path102" /><path
       style="fill:#1f2235;fill-opacity:1;stroke:#1f2235;stroke-width:0.0923179;stroke-linecap:square;stroke-dasharray:none;stroke-opacity:1"
       d="m 131.81564,91.269765 -2.36017,0.003 1.26486,-1.36735 z"
       id="path102-1"
       sodipodi:nodetypes="cccc" /></g></svg>
