<?xml version="1.0" encoding="UTF-8" standalone="no"?>
<!-- Created with Inkscape (http://www.inkscape.org/) -->

<svg
   width="87.321877mm"
   height="62.047684mm"
   viewBox="0 0 87.321877 62.047684"
   version="1.1"
   id="svg1"
   xml:space="preserve"
   xmlns:inkscape="http://www.inkscape.org/namespaces/inkscape"
   xmlns:sodipodi="http://sodipodi.sourceforge.net/DTD/sodipodi-0.dtd"
   xmlns="http://www.w3.org/2000/svg"
   xmlns:svg="http://www.w3.org/2000/svg"><sodipodi:namedview
     id="namedview1"
     pagecolor="#ffffff"
     bordercolor="#000000"
     borderopacity="0.25"
     inkscape:showpageshadow="2"
     inkscape:pageopacity="0.0"
     inkscape:pagecheckerboard="0"
     inkscape:deskcolor="#d1d1d1"
     inkscape:document-units="mm" /><defs
     id="defs1" /><g
     inkscape:label="Layer 1"
     inkscape:groupmode="layer"
     id="layer1"
     transform="translate(177.71668,-256.2011)"><path
       style="fill:#1cc743;fill-opacity:1;stroke:none;stroke-width:0.392999;stroke-linecap:round;stroke-linejoin:round;stroke-dasharray:none;stroke-dashoffset:0;stroke-opacity:1"
       d="m -143.3671,256.29082 c -34.87268,-0.32177 -44.86925,48.76364 -22.2123,58.77908 12.43912,5.42865 23.15513,1.34479 27.486,-5.78657 7.18311,-11.82793 -2.58267,-26.14215 -18.65028,-22.99975 -1.6558,-15.90991 8.12799,-18.7788 13.90757,-19.72696 4.39988,0.0609 3.92598,-11.48151 -0.53099,-10.2658 z"
       id="path8"
       sodipodi:nodetypes="ccsccc" /><path
       style="fill:#1cc743;fill-opacity:1;stroke:none;stroke-width:0.392999;stroke-linecap:round;stroke-linejoin:round;stroke-dasharray:none;stroke-dashoffset:0;stroke-opacity:1"
       d="m -98.064717,256.96862 c -34.872683,-0.32177 -44.869253,48.76364 -22.212303,58.77908 12.43912,5.42865 23.155133,1.34479 27.486003,-5.78657 7.18311,-11.82793 -2.58267,-26.14215 -18.650283,-22.99975 -1.6558,-15.90991 8.12799,-18.7788 13.907573,-19.72696 4.39988,0.0609 3.92598,-11.48151 -0.53099,-10.2658 z"
       id="path8-5"
       sodipodi:nodetypes="ccsccc" /></g></svg>
